<mxfile host="app.diagrams.net" modified="2023-11-17T08:59:50.219Z" agent="Mozilla/5.0 (Windows NT 10.0; Win64; x64) AppleWebKit/537.36 (KHTML, like Gecko) Chrome/119.0.0.0 Safari/537.36" etag="hleR04K10PYa_x6lp0XR" version="22.1.2" type="google">
  <diagram id="C5RBs43oDa-KdzZeNtuy" name="Page-1">
    <mxGraphModel grid="1" page="1" gridSize="10" guides="1" tooltips="1" connect="1" arrows="1" fold="1" pageScale="1" pageWidth="827" pageHeight="1169" math="0" shadow="0">
      <root>
        <mxCell id="WIyWlLk6GJQsqaUBKTNV-0" />
        <mxCell id="WIyWlLk6GJQsqaUBKTNV-1" parent="WIyWlLk6GJQsqaUBKTNV-0" />
        <mxCell id="zkfFHV4jXpPFQw0GAbJ--17" value="PrintField" style="swimlane;fontStyle=0;align=center;verticalAlign=top;childLayout=stackLayout;horizontal=1;startSize=26;horizontalStack=0;resizeParent=1;resizeLast=0;collapsible=1;marginBottom=0;rounded=0;shadow=0;strokeWidth=1;" vertex="1" parent="WIyWlLk6GJQsqaUBKTNV-1">
          <mxGeometry x="10" y="-470" width="440" height="160" as="geometry">
            <mxRectangle x="550" y="140" width="160" height="26" as="alternateBounds" />
          </mxGeometry>
        </mxCell>
        <mxCell id="zkfFHV4jXpPFQw0GAbJ--18" value="-Gamefield &amp;gameField" style="text;align=left;verticalAlign=top;spacingLeft=4;spacingRight=4;overflow=hidden;rotatable=0;points=[[0,0.5],[1,0.5]];portConstraint=eastwest;" vertex="1" parent="zkfFHV4jXpPFQw0GAbJ--17">
          <mxGeometry y="26" width="440" height="34" as="geometry" />
        </mxCell>
        <mxCell id="FGoNPR3FSU7oaz4X7-nm-2" value="-Playercontroller &amp;cnt" style="text;align=left;verticalAlign=top;spacingLeft=4;spacingRight=4;overflow=hidden;rotatable=0;points=[[0,0.5],[1,0.5]];portConstraint=eastwest;" vertex="1" parent="zkfFHV4jXpPFQw0GAbJ--17">
          <mxGeometry y="60" width="440" height="30" as="geometry" />
        </mxCell>
        <mxCell id="uDKOAM1P0P3WjOY8QCAv-103" value="" style="line;html=1;strokeWidth=1;align=left;verticalAlign=middle;spacingTop=-1;spacingLeft=3;spacingRight=3;rotatable=0;labelPosition=right;points=[];portConstraint=eastwest;" vertex="1" parent="zkfFHV4jXpPFQw0GAbJ--17">
          <mxGeometry y="90" width="440" height="8" as="geometry" />
        </mxCell>
        <mxCell id="uDKOAM1P0P3WjOY8QCAv-101" value="+PrintField(Gamefield &amp;gameField, Playercontroller &amp;cnt);" style="text;align=left;verticalAlign=top;spacingLeft=4;spacingRight=4;overflow=hidden;rotatable=0;points=[[0,0.5],[1,0.5]];portConstraint=eastwest;" vertex="1" parent="zkfFHV4jXpPFQw0GAbJ--17">
          <mxGeometry y="98" width="440" height="30" as="geometry" />
        </mxCell>
        <mxCell id="uDKOAM1P0P3WjOY8QCAv-102" value="+void printField();" style="text;align=left;verticalAlign=top;spacingLeft=4;spacingRight=4;overflow=hidden;rotatable=0;points=[[0,0.5],[1,0.5]];portConstraint=eastwest;" vertex="1" parent="zkfFHV4jXpPFQw0GAbJ--17">
          <mxGeometry y="128" width="440" height="30" as="geometry" />
        </mxCell>
        <mxCell id="uDKOAM1P0P3WjOY8QCAv-0" value="Game" style="swimlane;fontStyle=2;align=center;verticalAlign=top;childLayout=stackLayout;horizontal=1;startSize=26;horizontalStack=0;resizeParent=1;resizeLast=0;collapsible=1;marginBottom=0;rounded=0;shadow=0;strokeWidth=1;" vertex="1" parent="WIyWlLk6GJQsqaUBKTNV-1">
          <mxGeometry x="-780" y="-570" width="470" height="354" as="geometry">
            <mxRectangle x="230" y="140" width="160" height="26" as="alternateBounds" />
          </mxGeometry>
        </mxCell>
        <mxCell id="uDKOAM1P0P3WjOY8QCAv-1" value="&lt;p&gt;-GameState gameProgress;&lt;br&gt;&lt;/p&gt;" style="text;align=left;verticalAlign=top;spacingLeft=4;spacingRight=4;overflow=hidden;rotatable=0;points=[[0,0.5],[1,0.5]];portConstraint=eastwest;html=1;" vertex="1" parent="uDKOAM1P0P3WjOY8QCAv-0">
          <mxGeometry y="26" width="470" height="44" as="geometry" />
        </mxCell>
        <mxCell id="uDKOAM1P0P3WjOY8QCAv-21" value="" style="line;html=1;strokeWidth=1;align=left;verticalAlign=middle;spacingTop=-1;spacingLeft=3;spacingRight=3;rotatable=0;labelPosition=right;points=[];portConstraint=eastwest;" vertex="1" parent="uDKOAM1P0P3WjOY8QCAv-0">
          <mxGeometry y="70" width="470" height="8" as="geometry" />
        </mxCell>
        <mxCell id="uDKOAM1P0P3WjOY8QCAv-3" value="+explicit Game();" style="text;align=left;verticalAlign=top;spacingLeft=4;spacingRight=4;overflow=hidden;rotatable=0;points=[[0,0.5],[1,0.5]];portConstraint=eastwest;rounded=0;shadow=0;html=0;" vertex="1" parent="uDKOAM1P0P3WjOY8QCAv-0">
          <mxGeometry y="78" width="470" height="30" as="geometry" />
        </mxCell>
        <mxCell id="uDKOAM1P0P3WjOY8QCAv-2" value="+void startGame();" style="text;align=left;verticalAlign=top;spacingLeft=4;spacingRight=4;overflow=hidden;rotatable=0;points=[[0,0.5],[1,0.5]];portConstraint=eastwest;rounded=0;shadow=0;html=0;" vertex="1" parent="uDKOAM1P0P3WjOY8QCAv-0">
          <mxGeometry y="108" width="470" height="30" as="geometry" />
        </mxCell>
        <mxCell id="uDKOAM1P0P3WjOY8QCAv-4" value="&lt;p&gt;&lt;span style=&quot;background-color: initial;&quot;&gt;+void quit();&lt;/span&gt;&lt;/p&gt;&lt;p&gt;&amp;nbsp; &amp;nbsp;&amp;nbsp;&lt;/p&gt;" style="text;align=left;verticalAlign=top;spacingLeft=4;spacingRight=4;overflow=hidden;rotatable=0;points=[[0,0.5],[1,0.5]];portConstraint=eastwest;html=1;" vertex="1" parent="uDKOAM1P0P3WjOY8QCAv-0">
          <mxGeometry y="138" width="470" height="40" as="geometry" />
        </mxCell>
        <mxCell id="uDKOAM1P0P3WjOY8QCAv-6" value="+bool checkWin(Player &amp;player, Playercontroller &amp;cnt, Gamefield &amp;field);" style="text;align=left;verticalAlign=top;spacingLeft=4;spacingRight=4;overflow=hidden;rotatable=0;points=[[0,0.5],[1,0.5]];portConstraint=eastwest;rounded=0;shadow=0;html=0;" vertex="1" parent="uDKOAM1P0P3WjOY8QCAv-0">
          <mxGeometry y="178" width="470" height="30" as="geometry" />
        </mxCell>
        <mxCell id="uDKOAM1P0P3WjOY8QCAv-7" value="+bool checkLoss(Player&amp; player);" style="text;align=left;verticalAlign=top;spacingLeft=4;spacingRight=4;overflow=hidden;rotatable=0;points=[[0,0.5],[1,0.5]];portConstraint=eastwest;rounded=0;shadow=0;html=0;" vertex="1" parent="uDKOAM1P0P3WjOY8QCAv-0">
          <mxGeometry y="208" width="470" height="30" as="geometry" />
        </mxCell>
        <mxCell id="uDKOAM1P0P3WjOY8QCAv-8" value="+void restart();" style="text;align=left;verticalAlign=top;spacingLeft=4;spacingRight=4;overflow=hidden;rotatable=0;points=[[0,0.5],[1,0.5]];portConstraint=eastwest;rounded=0;shadow=0;html=0;" vertex="1" parent="uDKOAM1P0P3WjOY8QCAv-0">
          <mxGeometry y="238" width="470" height="30" as="geometry" />
        </mxCell>
        <mxCell id="uDKOAM1P0P3WjOY8QCAv-58" value="+void handleCommand(Player&amp; player, Playercontroller&amp; cnt, Command command);" style="text;align=left;verticalAlign=top;spacingLeft=4;spacingRight=4;overflow=hidden;rotatable=0;points=[[0,0.5],[1,0.5]];portConstraint=eastwest;rounded=0;shadow=0;html=0;" vertex="1" parent="uDKOAM1P0P3WjOY8QCAv-0">
          <mxGeometry y="268" width="470" height="30" as="geometry" />
        </mxCell>
        <mxCell id="uDKOAM1P0P3WjOY8QCAv-10" value="InputHandler" style="swimlane;fontStyle=2;align=center;verticalAlign=top;childLayout=stackLayout;horizontal=1;startSize=26;horizontalStack=0;resizeParent=1;resizeLast=0;collapsible=1;marginBottom=0;rounded=0;shadow=0;strokeWidth=1;html=1;" vertex="1" parent="WIyWlLk6GJQsqaUBKTNV-1">
          <mxGeometry x="20" y="-830" width="360" height="262" as="geometry">
            <mxRectangle x="230" y="140" width="160" height="26" as="alternateBounds" />
          </mxGeometry>
        </mxCell>
        <mxCell id="uDKOAM1P0P3WjOY8QCAv-11" value="- std::map commandMap;" style="text;align=left;verticalAlign=top;spacingLeft=4;spacingRight=4;overflow=hidden;rotatable=0;points=[[0,0.5],[1,0.5]];portConstraint=eastwest;html=1;fillColor=none;" vertex="1" parent="uDKOAM1P0P3WjOY8QCAv-10">
          <mxGeometry y="26" width="360" height="24" as="geometry" />
        </mxCell>
        <mxCell id="uDKOAM1P0P3WjOY8QCAv-20" value="-Â std::ifstream file;" style="text;align=left;verticalAlign=top;spacingLeft=4;spacingRight=4;overflow=hidden;rotatable=0;points=[[0,0.5],[1,0.5]];portConstraint=eastwest;html=1;fillColor=none;" vertex="1" parent="uDKOAM1P0P3WjOY8QCAv-10">
          <mxGeometry y="50" width="360" height="24" as="geometry" />
        </mxCell>
        <mxCell id="uDKOAM1P0P3WjOY8QCAv-12" value="- Command stringToCommand(const std::string&amp; command);" style="text;align=left;verticalAlign=top;spacingLeft=4;spacingRight=4;overflow=hidden;rotatable=0;points=[[0,0.5],[1,0.5]];portConstraint=eastwest;rounded=0;shadow=0;html=0;" vertex="1" parent="uDKOAM1P0P3WjOY8QCAv-10">
          <mxGeometry y="74" width="360" height="26" as="geometry" />
        </mxCell>
        <mxCell id="uDKOAM1P0P3WjOY8QCAv-22" value="" style="line;html=1;strokeWidth=1;align=left;verticalAlign=middle;spacingTop=-1;spacingLeft=3;spacingRight=3;rotatable=0;labelPosition=right;points=[];portConstraint=eastwest;" vertex="1" parent="uDKOAM1P0P3WjOY8QCAv-10">
          <mxGeometry y="100" width="360" height="8" as="geometry" />
        </mxCell>
        <mxCell id="uDKOAM1P0P3WjOY8QCAv-13" value="+explicit InputHandler(const std::string&amp; filename);" style="text;align=left;verticalAlign=top;spacingLeft=4;spacingRight=4;overflow=hidden;rotatable=0;points=[[0,0.5],[1,0.5]];portConstraint=eastwest;rounded=0;shadow=0;html=0;" vertex="1" parent="uDKOAM1P0P3WjOY8QCAv-10">
          <mxGeometry y="108" width="360" height="30" as="geometry" />
        </mxCell>
        <mxCell id="uDKOAM1P0P3WjOY8QCAv-14" value="+~InputHandler();" style="text;align=left;verticalAlign=top;spacingLeft=4;spacingRight=4;overflow=hidden;rotatable=0;points=[[0,0.5],[1,0.5]];portConstraint=eastwest;html=1;" vertex="1" parent="uDKOAM1P0P3WjOY8QCAv-10">
          <mxGeometry y="138" width="360" height="40" as="geometry" />
        </mxCell>
        <mxCell id="uDKOAM1P0P3WjOY8QCAv-15" value="+void startGame();" style="text;align=left;verticalAlign=top;spacingLeft=4;spacingRight=4;overflow=hidden;rotatable=0;points=[[0,0.5],[1,0.5]];portConstraint=eastwest;rounded=0;shadow=0;html=0;" vertex="1" parent="uDKOAM1P0P3WjOY8QCAv-10">
          <mxGeometry y="178" width="360" height="30" as="geometry" />
        </mxCell>
        <mxCell id="uDKOAM1P0P3WjOY8QCAv-16" value="+Command handleInput(const std::string&amp; input);" style="text;align=left;verticalAlign=top;spacingLeft=4;spacingRight=4;overflow=hidden;rotatable=0;points=[[0,0.5],[1,0.5]];portConstraint=eastwest;rounded=0;shadow=0;html=0;" vertex="1" parent="uDKOAM1P0P3WjOY8QCAv-10">
          <mxGeometry y="208" width="360" height="30" as="geometry" />
        </mxCell>
        <mxCell id="uDKOAM1P0P3WjOY8QCAv-23" value="&quot;enum&quot;&lt;br&gt;Command" style="swimlane;fontStyle=2;align=center;verticalAlign=top;childLayout=stackLayout;horizontal=1;startSize=40;horizontalStack=0;resizeParent=1;resizeLast=0;collapsible=1;marginBottom=0;rounded=0;shadow=0;strokeWidth=1;html=1;" vertex="1" parent="WIyWlLk6GJQsqaUBKTNV-1">
          <mxGeometry x="460" y="-830" width="170" height="320" as="geometry">
            <mxRectangle x="230" y="140" width="160" height="26" as="alternateBounds" />
          </mxGeometry>
        </mxCell>
        <mxCell id="uDKOAM1P0P3WjOY8QCAv-39" value="&lt;span style=&quot;color: rgb(0, 0, 0); font-family: Helvetica; font-size: 12px; font-style: normal; font-variant-ligatures: normal; font-variant-caps: normal; font-weight: 400; letter-spacing: normal; orphans: 2; text-align: left; text-indent: 0px; text-transform: none; widows: 2; word-spacing: 0px; -webkit-text-stroke-width: 0px; background-color: rgb(251, 251, 251); text-decoration-thickness: initial; text-decoration-style: initial; text-decoration-color: initial; float: none; display: inline !important;&quot;&gt;NOTHING&lt;/span&gt;&lt;br&gt;" style="text;align=left;verticalAlign=top;spacingLeft=4;spacingRight=4;overflow=hidden;rotatable=0;points=[[0,0.5],[1,0.5]];portConstraint=eastwest;html=1;fillColor=none;" vertex="1" parent="uDKOAM1P0P3WjOY8QCAv-23">
          <mxGeometry y="40" width="170" height="40" as="geometry" />
        </mxCell>
        <mxCell id="uDKOAM1P0P3WjOY8QCAv-33" value="&amp;nbsp;QUIT" style="text;align=left;verticalAlign=top;spacingLeft=4;spacingRight=4;overflow=hidden;rotatable=0;points=[[0,0.5],[1,0.5]];portConstraint=eastwest;html=1;fillColor=none;whiteSpace=wrap;" vertex="1" parent="uDKOAM1P0P3WjOY8QCAv-23">
          <mxGeometry y="80" width="170" height="40" as="geometry" />
        </mxCell>
        <mxCell id="uDKOAM1P0P3WjOY8QCAv-34" value="MOVE_UP" style="text;align=left;verticalAlign=top;spacingLeft=4;spacingRight=4;overflow=hidden;rotatable=0;points=[[0,0.5],[1,0.5]];portConstraint=eastwest;html=1;fillColor=none;" vertex="1" parent="uDKOAM1P0P3WjOY8QCAv-23">
          <mxGeometry y="120" width="170" height="40" as="geometry" />
        </mxCell>
        <mxCell id="uDKOAM1P0P3WjOY8QCAv-35" value="MOVE_DOWN" style="text;align=left;verticalAlign=top;spacingLeft=4;spacingRight=4;overflow=hidden;rotatable=0;points=[[0,0.5],[1,0.5]];portConstraint=eastwest;html=1;fillColor=none;" vertex="1" parent="uDKOAM1P0P3WjOY8QCAv-23">
          <mxGeometry y="160" width="170" height="40" as="geometry" />
        </mxCell>
        <mxCell id="uDKOAM1P0P3WjOY8QCAv-36" value="&amp;nbsp;MOVE_LEFT" style="text;align=left;verticalAlign=top;spacingLeft=4;spacingRight=4;overflow=hidden;rotatable=0;points=[[0,0.5],[1,0.5]];portConstraint=eastwest;html=1;fillColor=none;" vertex="1" parent="uDKOAM1P0P3WjOY8QCAv-23">
          <mxGeometry y="200" width="170" height="40" as="geometry" />
        </mxCell>
        <mxCell id="uDKOAM1P0P3WjOY8QCAv-37" value="&amp;nbsp;MOVE_RIGHT" style="text;align=left;verticalAlign=top;spacingLeft=4;spacingRight=4;overflow=hidden;rotatable=0;points=[[0,0.5],[1,0.5]];portConstraint=eastwest;html=1;fillColor=none;" vertex="1" parent="uDKOAM1P0P3WjOY8QCAv-23">
          <mxGeometry y="240" width="170" height="40" as="geometry" />
        </mxCell>
        <mxCell id="uDKOAM1P0P3WjOY8QCAv-38" value="RESTART" style="text;align=left;verticalAlign=top;spacingLeft=4;spacingRight=4;overflow=hidden;rotatable=0;points=[[0,0.5],[1,0.5]];portConstraint=eastwest;html=1;fillColor=none;" vertex="1" parent="uDKOAM1P0P3WjOY8QCAv-23">
          <mxGeometry y="280" width="170" height="40" as="geometry" />
        </mxCell>
        <mxCell id="uDKOAM1P0P3WjOY8QCAv-41" value="&quot;enum&quot;&lt;br&gt;GameState" style="swimlane;fontStyle=2;align=center;verticalAlign=top;childLayout=stackLayout;horizontal=1;startSize=40;horizontalStack=0;resizeParent=1;resizeLast=0;collapsible=1;marginBottom=0;rounded=0;shadow=0;strokeWidth=1;html=1;" vertex="1" parent="WIyWlLk6GJQsqaUBKTNV-1">
          <mxGeometry x="-670" y="-920" width="170" height="200" as="geometry">
            <mxRectangle x="230" y="140" width="160" height="26" as="alternateBounds" />
          </mxGeometry>
        </mxCell>
        <mxCell id="uDKOAM1P0P3WjOY8QCAv-42" value="Active" style="text;align=left;verticalAlign=top;spacingLeft=4;spacingRight=4;overflow=hidden;rotatable=0;points=[[0,0.5],[1,0.5]];portConstraint=eastwest;html=1;fillColor=none;whiteSpace=wrap;" vertex="1" parent="uDKOAM1P0P3WjOY8QCAv-41">
          <mxGeometry y="40" width="170" height="40" as="geometry" />
        </mxCell>
        <mxCell id="uDKOAM1P0P3WjOY8QCAv-43" value="Non_active" style="text;align=left;verticalAlign=top;spacingLeft=4;spacingRight=4;overflow=hidden;rotatable=0;points=[[0,0.5],[1,0.5]];portConstraint=eastwest;html=1;fillColor=none;" vertex="1" parent="uDKOAM1P0P3WjOY8QCAv-41">
          <mxGeometry y="80" width="170" height="40" as="geometry" />
        </mxCell>
        <mxCell id="uDKOAM1P0P3WjOY8QCAv-44" value="Win" style="text;align=left;verticalAlign=top;spacingLeft=4;spacingRight=4;overflow=hidden;rotatable=0;points=[[0,0.5],[1,0.5]];portConstraint=eastwest;html=1;fillColor=none;" vertex="1" parent="uDKOAM1P0P3WjOY8QCAv-41">
          <mxGeometry y="120" width="170" height="40" as="geometry" />
        </mxCell>
        <mxCell id="uDKOAM1P0P3WjOY8QCAv-45" value="Lose" style="text;align=left;verticalAlign=top;spacingLeft=4;spacingRight=4;overflow=hidden;rotatable=0;points=[[0,0.5],[1,0.5]];portConstraint=eastwest;html=1;fillColor=none;" vertex="1" parent="uDKOAM1P0P3WjOY8QCAv-41">
          <mxGeometry y="160" width="170" height="40" as="geometry" />
        </mxCell>
        <mxCell id="uDKOAM1P0P3WjOY8QCAv-50" value="FieldBuilder" style="swimlane;fontStyle=2;align=center;verticalAlign=top;childLayout=stackLayout;horizontal=1;startSize=26;horizontalStack=0;resizeParent=1;resizeLast=0;collapsible=1;marginBottom=0;rounded=0;shadow=0;strokeWidth=1;" vertex="1" parent="WIyWlLk6GJQsqaUBKTNV-1">
          <mxGeometry x="50" y="-50" width="400" height="210" as="geometry">
            <mxRectangle x="230" y="140" width="160" height="26" as="alternateBounds" />
          </mxGeometry>
        </mxCell>
        <mxCell id="uDKOAM1P0P3WjOY8QCAv-51" value="-Â Player&amp; player;" style="text;align=left;verticalAlign=top;spacingLeft=4;spacingRight=4;overflow=hidden;rotatable=0;points=[[0,0.5],[1,0.5]];portConstraint=eastwest;rounded=0;shadow=0;html=0;" vertex="1" parent="uDKOAM1P0P3WjOY8QCAv-50">
          <mxGeometry y="26" width="400" height="34" as="geometry" />
        </mxCell>
        <mxCell id="uDKOAM1P0P3WjOY8QCAv-52" value="-Â Gamefield&amp; field;" style="text;align=left;verticalAlign=top;spacingLeft=4;spacingRight=4;overflow=hidden;rotatable=0;points=[[0,0.5],[1,0.5]];portConstraint=eastwest;rounded=0;shadow=0;html=0;" vertex="1" parent="uDKOAM1P0P3WjOY8QCAv-50">
          <mxGeometry y="60" width="400" height="26" as="geometry" />
        </mxCell>
        <mxCell id="uDKOAM1P0P3WjOY8QCAv-53" value="-Playercontroller&amp; cnt;" style="text;align=left;verticalAlign=top;spacingLeft=4;spacingRight=4;overflow=hidden;rotatable=0;points=[[0,0.5],[1,0.5]];portConstraint=eastwest;rounded=0;shadow=0;html=0;" vertex="1" parent="uDKOAM1P0P3WjOY8QCAv-50">
          <mxGeometry y="86" width="400" height="26" as="geometry" />
        </mxCell>
        <mxCell id="uDKOAM1P0P3WjOY8QCAv-54" value="" style="line;html=1;strokeWidth=1;align=left;verticalAlign=middle;spacingTop=-1;spacingLeft=3;spacingRight=3;rotatable=0;labelPosition=right;points=[];portConstraint=eastwest;" vertex="1" parent="uDKOAM1P0P3WjOY8QCAv-50">
          <mxGeometry y="112" width="400" height="8" as="geometry" />
        </mxCell>
        <mxCell id="uDKOAM1P0P3WjOY8QCAv-55" value="+FieldBuilder(Gamefield&amp; field, Player&amp; player, Playercontroller&amp; cnt);" style="text;align=left;verticalAlign=top;spacingLeft=4;spacingRight=4;overflow=hidden;rotatable=0;points=[[0,0.5],[1,0.5]];portConstraint=eastwest;" vertex="1" parent="uDKOAM1P0P3WjOY8QCAv-50">
          <mxGeometry y="120" width="400" height="26" as="geometry" />
        </mxCell>
        <mxCell id="uDKOAM1P0P3WjOY8QCAv-56" value="+void buildField();" style="text;align=left;verticalAlign=top;spacingLeft=4;spacingRight=4;overflow=hidden;rotatable=0;points=[[0,0.5],[1,0.5]];portConstraint=eastwest;rounded=0;shadow=0;html=0;" vertex="1" parent="uDKOAM1P0P3WjOY8QCAv-50">
          <mxGeometry y="146" width="400" height="28" as="geometry" />
        </mxCell>
        <mxCell id="uDKOAM1P0P3WjOY8QCAv-57" value="+~FieldBuilder() = default;" style="text;align=left;verticalAlign=top;spacingLeft=4;spacingRight=4;overflow=hidden;rotatable=0;points=[[0,0.5],[1,0.5]];portConstraint=eastwest;rounded=0;shadow=0;html=0;" vertex="1" parent="uDKOAM1P0P3WjOY8QCAv-50">
          <mxGeometry y="174" width="400" height="26" as="geometry" />
        </mxCell>
        <mxCell id="uDKOAM1P0P3WjOY8QCAv-62" value="" style="endArrow=open;endSize=12;dashed=1;html=1;rounded=0;exitX=0.525;exitY=-0.007;exitDx=0;exitDy=0;exitPerimeter=0;" edge="1" parent="WIyWlLk6GJQsqaUBKTNV-1" source="uDKOAM1P0P3WjOY8QCAv-10">
          <mxGeometry width="160" relative="1" as="geometry">
            <mxPoint x="199.38" y="-870" as="sourcePoint" />
            <mxPoint x="540" y="-832" as="targetPoint" />
            <Array as="points">
              <mxPoint x="210" y="-1010" />
              <mxPoint x="540" y="-1010" />
            </Array>
          </mxGeometry>
        </mxCell>
        <mxCell id="uDKOAM1P0P3WjOY8QCAv-64" value="" style="endArrow=open;endSize=12;dashed=1;html=1;rounded=0;exitX=0.41;exitY=-0.003;exitDx=0;exitDy=0;exitPerimeter=0;entryX=0.478;entryY=1.004;entryDx=0;entryDy=0;entryPerimeter=0;" edge="1" parent="WIyWlLk6GJQsqaUBKTNV-1" source="uDKOAM1P0P3WjOY8QCAv-0" target="uDKOAM1P0P3WjOY8QCAv-45">
          <mxGeometry width="160" relative="1" as="geometry">
            <mxPoint x="-590" y="-610" as="sourcePoint" />
            <mxPoint x="-430" y="-610" as="targetPoint" />
          </mxGeometry>
        </mxCell>
        <mxCell id="uDKOAM1P0P3WjOY8QCAv-65" value="Gamefield" style="swimlane;fontStyle=0;childLayout=stackLayout;horizontal=1;startSize=26;fillColor=none;horizontalStack=0;resizeParent=1;resizeParentMax=0;resizeLast=0;collapsible=1;marginBottom=0;whiteSpace=wrap;html=1;" vertex="1" parent="WIyWlLk6GJQsqaUBKTNV-1">
          <mxGeometry x="-720" y="-50" width="300" height="398" as="geometry">
            <mxRectangle x="414" y="270" width="100" height="30" as="alternateBounds" />
          </mxGeometry>
        </mxCell>
        <mxCell id="uDKOAM1P0P3WjOY8QCAv-66" value="- height: int" style="text;strokeColor=none;fillColor=none;align=left;verticalAlign=top;spacingLeft=4;spacingRight=4;overflow=hidden;rotatable=0;points=[[0,0.5],[1,0.5]];portConstraint=eastwest;whiteSpace=wrap;html=1;" vertex="1" parent="uDKOAM1P0P3WjOY8QCAv-65">
          <mxGeometry y="26" width="300" height="26" as="geometry" />
        </mxCell>
        <mxCell id="uDKOAM1P0P3WjOY8QCAv-67" value="- width: int" style="text;strokeColor=none;fillColor=none;align=left;verticalAlign=top;spacingLeft=4;spacingRight=4;overflow=hidden;rotatable=0;points=[[0,0.5],[1,0.5]];portConstraint=eastwest;whiteSpace=wrap;html=1;" vertex="1" parent="uDKOAM1P0P3WjOY8QCAv-65">
          <mxGeometry y="52" width="300" height="26" as="geometry" />
        </mxCell>
        <mxCell id="uDKOAM1P0P3WjOY8QCAv-68" value="-start: pair&amp;lt;int, int&amp;gt;" style="text;strokeColor=none;fillColor=none;align=left;verticalAlign=top;spacingLeft=4;spacingRight=4;overflow=hidden;rotatable=0;points=[[0,0.5],[1,0.5]];portConstraint=eastwest;whiteSpace=wrap;html=1;" vertex="1" parent="uDKOAM1P0P3WjOY8QCAv-65">
          <mxGeometry y="78" width="300" height="26" as="geometry" />
        </mxCell>
        <mxCell id="uDKOAM1P0P3WjOY8QCAv-69" value="-finish: pair&amp;lt;int, int&amp;gt;" style="text;strokeColor=none;fillColor=none;align=left;verticalAlign=top;spacingLeft=4;spacingRight=4;overflow=hidden;rotatable=0;points=[[0,0.5],[1,0.5]];portConstraint=eastwest;whiteSpace=wrap;html=1;" vertex="1" parent="uDKOAM1P0P3WjOY8QCAv-65">
          <mxGeometry y="104" width="300" height="26" as="geometry" />
        </mxCell>
        <mxCell id="uDKOAM1P0P3WjOY8QCAv-70" value="-gamefield Cell**" style="text;strokeColor=none;fillColor=none;align=left;verticalAlign=top;spacingLeft=4;spacingRight=4;overflow=hidden;rotatable=0;points=[[0,0.5],[1,0.5]];portConstraint=eastwest;whiteSpace=wrap;html=1;" vertex="1" parent="uDKOAM1P0P3WjOY8QCAv-65">
          <mxGeometry y="130" width="300" height="26" as="geometry" />
        </mxCell>
        <mxCell id="uDKOAM1P0P3WjOY8QCAv-71" value="" style="line;strokeWidth=1;fillColor=none;align=left;verticalAlign=middle;spacingTop=-1;spacingLeft=3;spacingRight=3;rotatable=0;labelPosition=right;points=[];portConstraint=eastwest;strokeColor=inherit;" vertex="1" parent="uDKOAM1P0P3WjOY8QCAv-65">
          <mxGeometry y="156" width="300" height="8" as="geometry" />
        </mxCell>
        <mxCell id="uDKOAM1P0P3WjOY8QCAv-72" value="+Gamefield(int width, int height): Gamefield" style="text;strokeColor=none;fillColor=none;align=left;verticalAlign=top;spacingLeft=4;spacingRight=4;overflow=hidden;rotatable=0;points=[[0,0.5],[1,0.5]];portConstraint=eastwest;whiteSpace=wrap;html=1;" vertex="1" parent="uDKOAM1P0P3WjOY8QCAv-65">
          <mxGeometry y="164" width="300" height="26" as="geometry" />
        </mxCell>
        <mxCell id="uDKOAM1P0P3WjOY8QCAv-73" value="+Gamefield(Gamefield&amp;amp;): Gamefield" style="text;strokeColor=none;fillColor=none;align=left;verticalAlign=top;spacingLeft=4;spacingRight=4;overflow=hidden;rotatable=0;points=[[0,0.5],[1,0.5]];portConstraint=eastwest;whiteSpace=wrap;html=1;" vertex="1" parent="uDKOAM1P0P3WjOY8QCAv-65">
          <mxGeometry y="190" width="300" height="26" as="geometry" />
        </mxCell>
        <mxCell id="uDKOAM1P0P3WjOY8QCAv-74" value="+Gamefield(Gamefield&amp;amp;&amp;amp;): Gamefield" style="text;strokeColor=none;fillColor=none;align=left;verticalAlign=top;spacingLeft=4;spacingRight=4;overflow=hidden;rotatable=0;points=[[0,0.5],[1,0.5]];portConstraint=eastwest;whiteSpace=wrap;html=1;" vertex="1" parent="uDKOAM1P0P3WjOY8QCAv-65">
          <mxGeometry y="216" width="300" height="26" as="geometry" />
        </mxCell>
        <mxCell id="uDKOAM1P0P3WjOY8QCAv-75" value="+getCell(int,int): Cell&amp;amp;" style="text;strokeColor=none;fillColor=none;align=left;verticalAlign=top;spacingLeft=4;spacingRight=4;overflow=hidden;rotatable=0;points=[[0,0.5],[1,0.5]];portConstraint=eastwest;whiteSpace=wrap;html=1;" vertex="1" parent="uDKOAM1P0P3WjOY8QCAv-65">
          <mxGeometry y="242" width="300" height="26" as="geometry" />
        </mxCell>
        <mxCell id="uDKOAM1P0P3WjOY8QCAv-76" value="+~Gamefield(): None" style="text;strokeColor=none;fillColor=none;align=left;verticalAlign=top;spacingLeft=4;spacingRight=4;overflow=hidden;rotatable=0;points=[[0,0.5],[1,0.5]];portConstraint=eastwest;whiteSpace=wrap;html=1;" vertex="1" parent="uDKOAM1P0P3WjOY8QCAv-65">
          <mxGeometry y="268" width="300" height="26" as="geometry" />
        </mxCell>
        <mxCell id="uDKOAM1P0P3WjOY8QCAv-77" value="+checkCoords(pair&amp;lt;int,int&amp;gt;, pair&amp;lt;int,int&amp;gt;, value): int" style="text;strokeColor=none;fillColor=none;align=left;verticalAlign=top;spacingLeft=4;spacingRight=4;overflow=hidden;rotatable=0;points=[[0,0.5],[1,0.5]];portConstraint=eastwest;whiteSpace=wrap;html=1;" vertex="1" parent="uDKOAM1P0P3WjOY8QCAv-65">
          <mxGeometry y="294" width="300" height="26" as="geometry" />
        </mxCell>
        <mxCell id="uDKOAM1P0P3WjOY8QCAv-78" value="+getWidth() const: int" style="text;strokeColor=none;fillColor=none;align=left;verticalAlign=top;spacingLeft=4;spacingRight=4;overflow=hidden;rotatable=0;points=[[0,0.5],[1,0.5]];portConstraint=eastwest;whiteSpace=wrap;html=1;" vertex="1" parent="uDKOAM1P0P3WjOY8QCAv-65">
          <mxGeometry y="320" width="300" height="26" as="geometry" />
        </mxCell>
        <mxCell id="uDKOAM1P0P3WjOY8QCAv-79" value="+getHeight() const: int" style="text;strokeColor=none;fillColor=none;align=left;verticalAlign=top;spacingLeft=4;spacingRight=4;overflow=hidden;rotatable=0;points=[[0,0.5],[1,0.5]];portConstraint=eastwest;whiteSpace=wrap;html=1;" vertex="1" parent="uDKOAM1P0P3WjOY8QCAv-65">
          <mxGeometry y="346" width="300" height="26" as="geometry" />
        </mxCell>
        <mxCell id="uDKOAM1P0P3WjOY8QCAv-80" value="+getStart() const: pair&amp;lt;int, int&amp;gt;" style="text;strokeColor=none;fillColor=none;align=left;verticalAlign=top;spacingLeft=4;spacingRight=4;overflow=hidden;rotatable=0;points=[[0,0.5],[1,0.5]];portConstraint=eastwest;whiteSpace=wrap;html=1;" vertex="1" parent="uDKOAM1P0P3WjOY8QCAv-65">
          <mxGeometry y="372" width="300" height="26" as="geometry" />
        </mxCell>
        <mxCell id="uDKOAM1P0P3WjOY8QCAv-81" value="" style="endFill=0;endArrow=block;;endSize=12;dashed=1;html=1;rounded=0;exitX=0.53;exitY=0.005;exitDx=0;exitDy=0;exitPerimeter=0;entryX=0.478;entryY=1.004;entryDx=0;entryDy=0;entryPerimeter=0;" edge="1" parent="WIyWlLk6GJQsqaUBKTNV-1" source="uDKOAM1P0P3WjOY8QCAv-65">
          <mxGeometry width="160" relative="1" as="geometry">
            <mxPoint x="-558" y="-67" as="sourcePoint" />
            <mxPoint x="-560" y="-216" as="targetPoint" />
          </mxGeometry>
        </mxCell>
        <mxCell id="uDKOAM1P0P3WjOY8QCAv-82" value="Playercontroller" style="swimlane;fontStyle=0;childLayout=stackLayout;horizontal=1;startSize=26;fillColor=none;horizontalStack=0;resizeParent=1;resizeParentMax=0;resizeLast=0;collapsible=1;marginBottom=0;whiteSpace=wrap;html=1;" vertex="1" parent="WIyWlLk6GJQsqaUBKTNV-1">
          <mxGeometry x="-320" y="-50" width="340" height="434" as="geometry" />
        </mxCell>
        <mxCell id="uDKOAM1P0P3WjOY8QCAv-83" value="- x, y: int" style="text;strokeColor=none;fillColor=none;align=left;verticalAlign=top;spacingLeft=4;spacingRight=4;overflow=hidden;rotatable=0;points=[[0,0.5],[1,0.5]];portConstraint=eastwest;whiteSpace=wrap;html=1;" vertex="1" parent="uDKOAM1P0P3WjOY8QCAv-82">
          <mxGeometry y="26" width="340" height="26" as="geometry" />
        </mxCell>
        <mxCell id="uDKOAM1P0P3WjOY8QCAv-84" value="- player: Player&amp;amp;" style="text;strokeColor=none;fillColor=none;align=left;verticalAlign=top;spacingLeft=4;spacingRight=4;overflow=hidden;rotatable=0;points=[[0,0.5],[1,0.5]];portConstraint=eastwest;whiteSpace=wrap;html=1;" vertex="1" parent="uDKOAM1P0P3WjOY8QCAv-82">
          <mxGeometry y="52" width="340" height="26" as="geometry" />
        </mxCell>
        <mxCell id="uDKOAM1P0P3WjOY8QCAv-85" value="- gamefield: Gamefield&amp;amp;" style="text;strokeColor=none;fillColor=none;align=left;verticalAlign=top;spacingLeft=4;spacingRight=4;overflow=hidden;rotatable=0;points=[[0,0.5],[1,0.5]];portConstraint=eastwest;whiteSpace=wrap;html=1;" vertex="1" parent="uDKOAM1P0P3WjOY8QCAv-82">
          <mxGeometry y="78" width="340" height="26" as="geometry" />
        </mxCell>
        <mxCell id="uDKOAM1P0P3WjOY8QCAv-86" value="" style="line;strokeWidth=1;fillColor=none;align=left;verticalAlign=middle;spacingTop=-1;spacingLeft=3;spacingRight=3;rotatable=0;labelPosition=right;points=[];portConstraint=eastwest;strokeColor=inherit;" vertex="1" parent="uDKOAM1P0P3WjOY8QCAv-82">
          <mxGeometry y="104" width="340" height="8" as="geometry" />
        </mxCell>
        <mxCell id="uDKOAM1P0P3WjOY8QCAv-87" value="+ Playercontroller(Player&amp;amp; p, Gamefield&amp;amp; f) : Playercontroller" style="text;strokeColor=none;fillColor=none;align=left;verticalAlign=top;spacingLeft=4;spacingRight=4;overflow=hidden;rotatable=0;points=[[0,0.5],[1,0.5]];portConstraint=eastwest;whiteSpace=wrap;html=1;" vertex="1" parent="uDKOAM1P0P3WjOY8QCAv-82">
          <mxGeometry y="112" width="340" height="26" as="geometry" />
        </mxCell>
        <mxCell id="uDKOAM1P0P3WjOY8QCAv-88" value="+ move(Direction direction): move" style="text;strokeColor=none;fillColor=none;align=left;verticalAlign=top;spacingLeft=4;spacingRight=4;overflow=hidden;rotatable=0;points=[[0,0.5],[1,0.5]];portConstraint=eastwest;whiteSpace=wrap;html=1;" vertex="1" parent="uDKOAM1P0P3WjOY8QCAv-82">
          <mxGeometry y="138" width="340" height="32" as="geometry" />
        </mxCell>
        <mxCell id="uDKOAM1P0P3WjOY8QCAv-89" value="+ getScore(int score) : void" style="text;strokeColor=none;fillColor=none;align=left;verticalAlign=top;spacingLeft=4;spacingRight=4;overflow=hidden;rotatable=0;points=[[0,0.5],[1,0.5]];portConstraint=eastwest;whiteSpace=wrap;html=1;" vertex="1" parent="uDKOAM1P0P3WjOY8QCAv-82">
          <mxGeometry y="170" width="340" height="26" as="geometry" />
        </mxCell>
        <mxCell id="uDKOAM1P0P3WjOY8QCAv-90" value="+ getHealth(int health) : void" style="text;strokeColor=none;fillColor=none;align=left;verticalAlign=top;spacingLeft=4;spacingRight=4;overflow=hidden;rotatable=0;points=[[0,0.5],[1,0.5]];portConstraint=eastwest;whiteSpace=wrap;html=1;" vertex="1" parent="uDKOAM1P0P3WjOY8QCAv-82">
          <mxGeometry y="196" width="340" height="26" as="geometry" />
        </mxCell>
        <mxCell id="uDKOAM1P0P3WjOY8QCAv-91" value="+ showCoords() : void" style="text;strokeColor=none;fillColor=none;align=left;verticalAlign=top;spacingLeft=4;spacingRight=4;overflow=hidden;rotatable=0;points=[[0,0.5],[1,0.5]];portConstraint=eastwest;whiteSpace=wrap;html=1;" vertex="1" parent="uDKOAM1P0P3WjOY8QCAv-82">
          <mxGeometry y="222" width="340" height="26" as="geometry" />
        </mxCell>
        <mxCell id="uDKOAM1P0P3WjOY8QCAv-92" value="+ printField() : void" style="text;strokeColor=none;fillColor=none;align=left;verticalAlign=top;spacingLeft=4;spacingRight=4;overflow=hidden;rotatable=0;points=[[0,0.5],[1,0.5]];portConstraint=eastwest;whiteSpace=wrap;html=1;" vertex="1" parent="uDKOAM1P0P3WjOY8QCAv-82">
          <mxGeometry y="248" width="340" height="26" as="geometry" />
        </mxCell>
        <mxCell id="uDKOAM1P0P3WjOY8QCAv-93" value="+ stats() : void" style="text;strokeColor=none;fillColor=none;align=left;verticalAlign=top;spacingLeft=4;spacingRight=4;overflow=hidden;rotatable=0;points=[[0,0.5],[1,0.5]];portConstraint=eastwest;whiteSpace=wrap;html=1;" vertex="1" parent="uDKOAM1P0P3WjOY8QCAv-82">
          <mxGeometry y="274" width="340" height="26" as="geometry" />
        </mxCell>
        <mxCell id="uDKOAM1P0P3WjOY8QCAv-94" value="+ check(int x, int y) : bool" style="text;strokeColor=none;fillColor=none;align=left;verticalAlign=top;spacingLeft=4;spacingRight=4;overflow=hidden;rotatable=0;points=[[0,0.5],[1,0.5]];portConstraint=eastwest;whiteSpace=wrap;html=1;" vertex="1" parent="uDKOAM1P0P3WjOY8QCAv-82">
          <mxGeometry y="300" width="340" height="26" as="geometry" />
        </mxCell>
        <mxCell id="uDKOAM1P0P3WjOY8QCAv-95" value="+ win() : bool" style="text;strokeColor=none;fillColor=none;align=left;verticalAlign=top;spacingLeft=4;spacingRight=4;overflow=hidden;rotatable=0;points=[[0,0.5],[1,0.5]];portConstraint=eastwest;whiteSpace=wrap;html=1;" vertex="1" parent="uDKOAM1P0P3WjOY8QCAv-82">
          <mxGeometry y="326" width="340" height="26" as="geometry" />
        </mxCell>
        <mxCell id="uDKOAM1P0P3WjOY8QCAv-96" value="+ lose() : bool" style="text;strokeColor=none;fillColor=none;align=left;verticalAlign=top;spacingLeft=4;spacingRight=4;overflow=hidden;rotatable=0;points=[[0,0.5],[1,0.5]];portConstraint=eastwest;whiteSpace=wrap;html=1;" vertex="1" parent="uDKOAM1P0P3WjOY8QCAv-82">
          <mxGeometry y="352" width="340" height="26" as="geometry" />
        </mxCell>
        <mxCell id="uDKOAM1P0P3WjOY8QCAv-97" value="+ startGame() : bool" style="text;strokeColor=none;fillColor=none;align=left;verticalAlign=top;spacingLeft=4;spacingRight=4;overflow=hidden;rotatable=0;points=[[0,0.5],[1,0.5]];portConstraint=eastwest;whiteSpace=wrap;html=1;" vertex="1" parent="uDKOAM1P0P3WjOY8QCAv-82">
          <mxGeometry y="378" width="340" height="26" as="geometry" />
        </mxCell>
        <mxCell id="uDKOAM1P0P3WjOY8QCAv-98" value="+ ~Playercontroller(): Playercontroller" style="text;strokeColor=none;fillColor=none;align=left;verticalAlign=top;spacingLeft=4;spacingRight=4;overflow=hidden;rotatable=0;points=[[0,0.5],[1,0.5]];portConstraint=eastwest;whiteSpace=wrap;html=1;" vertex="1" parent="uDKOAM1P0P3WjOY8QCAv-82">
          <mxGeometry y="404" width="340" height="30" as="geometry" />
        </mxCell>
        <mxCell id="uDKOAM1P0P3WjOY8QCAv-99" value="" style="endFill=0;endArrow=block;;endSize=12;dashed=1;html=1;rounded=0;exitX=0.534;exitY=-0.001;exitDx=0;exitDy=0;exitPerimeter=0;entryX=0.75;entryY=1;entryDx=0;entryDy=0;" edge="1" parent="WIyWlLk6GJQsqaUBKTNV-1" source="uDKOAM1P0P3WjOY8QCAv-82" target="uDKOAM1P0P3WjOY8QCAv-0">
          <mxGeometry width="160" relative="1" as="geometry">
            <mxPoint x="-140" y="-50" as="sourcePoint" />
            <mxPoint x="-440" y="-80" as="targetPoint" />
            <Array as="points">
              <mxPoint x="-138" y="-150" />
              <mxPoint x="-427" y="-150" />
            </Array>
          </mxGeometry>
        </mxCell>
        <mxCell id="uDKOAM1P0P3WjOY8QCAv-100" value="" style="endArrow=block;endSize=12;dashed=1;html=1;rounded=0;exitX=0.5;exitY=0;exitDx=0;exitDy=0;entryX=0.998;entryY=0.865;entryDx=0;entryDy=0;entryPerimeter=0;endFill=0;" edge="1" parent="WIyWlLk6GJQsqaUBKTNV-1" source="uDKOAM1P0P3WjOY8QCAv-50" target="uDKOAM1P0P3WjOY8QCAv-58">
          <mxGeometry width="160" relative="1" as="geometry">
            <mxPoint x="289" y="-50" as="sourcePoint" />
            <mxPoint y="-290" as="targetPoint" />
            <Array as="points">
              <mxPoint x="250" y="-150" />
              <mxPoint y="-150" />
              <mxPoint y="-276" />
            </Array>
          </mxGeometry>
        </mxCell>
        <mxCell id="uDKOAM1P0P3WjOY8QCAv-104" value="" style="endFill=0;endArrow=block;;endSize=12;dashed=1;html=1;rounded=0;exitX=-0.005;exitY=0.251;exitDx=0;exitDy=0;exitPerimeter=0;" edge="1" parent="WIyWlLk6GJQsqaUBKTNV-1" source="FGoNPR3FSU7oaz4X7-nm-2" target="uDKOAM1P0P3WjOY8QCAv-4">
          <mxGeometry width="160" relative="1" as="geometry">
            <mxPoint x="-191.67000000000002" y="-342" as="sourcePoint" />
            <mxPoint x="-190.67000000000002" y="-510" as="targetPoint" />
            <Array as="points">
              <mxPoint x="-300" y="-402" />
            </Array>
          </mxGeometry>
        </mxCell>
        <mxCell id="uDKOAM1P0P3WjOY8QCAv-105" value="" style="endFill=0;endArrow=block;;endSize=12;dashed=1;html=1;rounded=0;exitX=-0.002;exitY=-0.097;exitDx=0;exitDy=0;entryX=0.851;entryY=0;entryDx=0;entryDy=0;entryPerimeter=0;exitPerimeter=0;" edge="1" parent="WIyWlLk6GJQsqaUBKTNV-1" source="uDKOAM1P0P3WjOY8QCAv-12" target="uDKOAM1P0P3WjOY8QCAv-0">
          <mxGeometry width="160" relative="1" as="geometry">
            <mxPoint x="-170" y="-642" as="sourcePoint" />
            <mxPoint x="-390" y="-780" as="targetPoint" />
            <Array as="points">
              <mxPoint x="-380" y="-760" />
            </Array>
          </mxGeometry>
        </mxCell>
      </root>
    </mxGraphModel>
  </diagram>
</mxfile>
